<mxfile host="app.diagrams.net" modified="2022-07-13T07:56:05.160Z" agent="5.0 (X11; Linux x86_64) AppleWebKit/537.36 (KHTML, like Gecko) Chrome/102.0.5005.63 Safari/537.36 Edg/102.0.1245.33" etag="XKZk9dOAqtDZ5_3S60XZ" version="20.1.1" type="github">
  <diagram id="tpvBMUVeYkJdXAKDBtsC" name="Page-1">
    <mxGraphModel dx="2031" dy="1113" grid="1" gridSize="10" guides="1" tooltips="1" connect="1" arrows="1" fold="1" page="1" pageScale="1" pageWidth="850" pageHeight="1100" math="0" shadow="0">
      <root>
        <mxCell id="0" />
        <mxCell id="1" parent="0" />
        <mxCell id="9N-q147ZUJoEI5QJqwTF-1" value="&lt;b&gt;Có sẵn HA phía trước.&lt;/b&gt;" style="rounded=0;whiteSpace=wrap;html=1;fontSize=17;strokeWidth=3;verticalAlign=top;labelPosition=center;verticalLabelPosition=middle;align=center;" vertex="1" parent="1">
          <mxGeometry x="45" y="940" width="775" height="520" as="geometry" />
        </mxCell>
        <mxCell id="9N-q147ZUJoEI5QJqwTF-2" value="&lt;b&gt;&lt;font style=&quot;font-size: 17px;&quot;&gt;Giảm tải cho storage&lt;/font&gt;&lt;/b&gt;" style="rounded=0;whiteSpace=wrap;html=1;strokeWidth=3;labelPosition=center;verticalLabelPosition=bottom;align=center;verticalAlign=top;" vertex="1" parent="1">
          <mxGeometry x="445" y="1150" width="120" height="250" as="geometry" />
        </mxCell>
        <mxCell id="9N-q147ZUJoEI5QJqwTF-3" value="" style="rounded=0;whiteSpace=wrap;html=1;fontSize=17;strokeWidth=3;" vertex="1" parent="1">
          <mxGeometry x="125" y="30" width="475" height="110" as="geometry" />
        </mxCell>
        <mxCell id="9N-q147ZUJoEI5QJqwTF-4" style="edgeStyle=orthogonalEdgeStyle;rounded=0;orthogonalLoop=1;jettySize=auto;html=1;entryX=0;entryY=0.5;entryDx=0;entryDy=0;fontSize=17;endArrow=none;endFill=0;strokeWidth=2;" edge="1" parent="1" source="9N-q147ZUJoEI5QJqwTF-6" target="9N-q147ZUJoEI5QJqwTF-23">
          <mxGeometry relative="1" as="geometry" />
        </mxCell>
        <mxCell id="9N-q147ZUJoEI5QJqwTF-5" style="edgeStyle=orthogonalEdgeStyle;rounded=0;orthogonalLoop=1;jettySize=auto;html=1;entryX=0;entryY=0.5;entryDx=0;entryDy=0;fontSize=17;endArrow=none;endFill=0;strokeWidth=2;" edge="1" parent="1" source="9N-q147ZUJoEI5QJqwTF-6" target="9N-q147ZUJoEI5QJqwTF-26">
          <mxGeometry relative="1" as="geometry" />
        </mxCell>
        <mxCell id="9N-q147ZUJoEI5QJqwTF-6" value="&lt;b&gt;&lt;font style=&quot;font-size: 17px;&quot;&gt;Giảm tải cho storage&lt;/font&gt;&lt;/b&gt;" style="rounded=0;whiteSpace=wrap;html=1;strokeWidth=3;labelPosition=center;verticalLabelPosition=bottom;align=center;verticalAlign=top;" vertex="1" parent="1">
          <mxGeometry x="375" y="160" width="120" height="250" as="geometry" />
        </mxCell>
        <mxCell id="9N-q147ZUJoEI5QJqwTF-7" style="edgeStyle=orthogonalEdgeStyle;rounded=0;orthogonalLoop=1;jettySize=auto;html=1;entryX=0;entryY=0.25;entryDx=0;entryDy=0;fontSize=17;strokeWidth=2;exitX=0.97;exitY=0.02;exitDx=0;exitDy=0;exitPerimeter=0;" edge="1" parent="1" source="9N-q147ZUJoEI5QJqwTF-9" target="9N-q147ZUJoEI5QJqwTF-12">
          <mxGeometry relative="1" as="geometry">
            <Array as="points">
              <mxPoint x="79" y="65" />
            </Array>
          </mxGeometry>
        </mxCell>
        <mxCell id="9N-q147ZUJoEI5QJqwTF-8" value="3306" style="edgeLabel;html=1;align=center;verticalAlign=bottom;resizable=0;points=[];fontSize=17;" vertex="1" connectable="0" parent="9N-q147ZUJoEI5QJqwTF-7">
          <mxGeometry x="0.5938" y="5" relative="1" as="geometry">
            <mxPoint as="offset" />
          </mxGeometry>
        </mxCell>
        <mxCell id="9N-q147ZUJoEI5QJqwTF-9" value="" style="verticalLabelPosition=bottom;html=1;verticalAlign=top;align=center;strokeColor=none;fillColor=#00BEF2;shape=mxgraph.azure.mobile;pointerEvents=1;" vertex="1" parent="1">
          <mxGeometry x="30" y="40" width="50" height="90" as="geometry" />
        </mxCell>
        <mxCell id="9N-q147ZUJoEI5QJqwTF-10" value="Gate 1" style="image;html=1;image=img/lib/clip_art/networking/Router_Icon_128x128.png;verticalAlign=middle;fontSize=12;labelPosition=center;verticalLabelPosition=middle;align=center;" vertex="1" parent="1">
          <mxGeometry x="395" y="170" width="80" height="80" as="geometry" />
        </mxCell>
        <mxCell id="9N-q147ZUJoEI5QJqwTF-11" value="Gate 2" style="image;html=1;image=img/lib/clip_art/networking/Router_Icon_128x128.png;labelPosition=center;verticalLabelPosition=middle;align=center;verticalAlign=middle;" vertex="1" parent="1">
          <mxGeometry x="395" y="260" width="80" height="80" as="geometry" />
        </mxCell>
        <mxCell id="9N-q147ZUJoEI5QJqwTF-12" value="" style="image;html=1;image=img/lib/clip_art/computers/Database_128x128.png;strokeWidth=3;" vertex="1" parent="1">
          <mxGeometry x="395" y="45" width="80" height="80" as="geometry" />
        </mxCell>
        <mxCell id="9N-q147ZUJoEI5QJqwTF-13" value="" style="shape=image;html=1;verticalAlign=top;verticalLabelPosition=bottom;labelBackgroundColor=#ffffff;imageAspect=0;aspect=fixed;image=https://cdn3.iconfinder.com/data/icons/arrows-397/48/arrow_infinity-128.png;strokeWidth=3;" vertex="1" parent="1">
          <mxGeometry x="405" y="340" width="60" height="60" as="geometry" />
        </mxCell>
        <mxCell id="9N-q147ZUJoEI5QJqwTF-14" style="edgeStyle=orthogonalEdgeStyle;rounded=0;orthogonalLoop=1;jettySize=auto;html=1;entryX=0;entryY=0.5;entryDx=0;entryDy=0;fontSize=17;strokeWidth=2;" edge="1" parent="1" source="9N-q147ZUJoEI5QJqwTF-16" target="9N-q147ZUJoEI5QJqwTF-10">
          <mxGeometry relative="1" as="geometry" />
        </mxCell>
        <mxCell id="9N-q147ZUJoEI5QJqwTF-15" style="edgeStyle=orthogonalEdgeStyle;rounded=0;orthogonalLoop=1;jettySize=auto;html=1;entryX=0;entryY=0.5;entryDx=0;entryDy=0;fontSize=17;strokeWidth=2;" edge="1" parent="1" source="9N-q147ZUJoEI5QJqwTF-16" target="9N-q147ZUJoEI5QJqwTF-11">
          <mxGeometry relative="1" as="geometry" />
        </mxCell>
        <mxCell id="9N-q147ZUJoEI5QJqwTF-16" value="Proxy &lt;br&gt;Cân bằng tải" style="outlineConnect=0;dashed=0;verticalLabelPosition=bottom;verticalAlign=top;align=center;html=1;shape=mxgraph.aws3.classic_load_balancer;fillColor=#F58536;gradientColor=none;strokeWidth=3;" vertex="1" parent="1">
          <mxGeometry x="215" y="220" width="69" height="72" as="geometry" />
        </mxCell>
        <mxCell id="9N-q147ZUJoEI5QJqwTF-17" style="edgeStyle=orthogonalEdgeStyle;rounded=0;orthogonalLoop=1;jettySize=auto;html=1;entryX=1;entryY=0.75;entryDx=0;entryDy=0;fontSize=17;endArrow=none;endFill=0;strokeWidth=2;" edge="1" parent="1" source="9N-q147ZUJoEI5QJqwTF-19" target="9N-q147ZUJoEI5QJqwTF-12">
          <mxGeometry relative="1" as="geometry" />
        </mxCell>
        <mxCell id="9N-q147ZUJoEI5QJqwTF-18" style="edgeStyle=orthogonalEdgeStyle;rounded=0;orthogonalLoop=1;jettySize=auto;html=1;entryX=1;entryY=0.25;entryDx=0;entryDy=0;fontSize=17;endArrow=none;endFill=0;strokeWidth=2;" edge="1" parent="1" source="9N-q147ZUJoEI5QJqwTF-19" target="9N-q147ZUJoEI5QJqwTF-10">
          <mxGeometry relative="1" as="geometry">
            <Array as="points">
              <mxPoint x="560" y="190" />
            </Array>
          </mxGeometry>
        </mxCell>
        <mxCell id="9N-q147ZUJoEI5QJqwTF-19" value="" style="shape=image;html=1;verticalAlign=top;verticalLabelPosition=bottom;labelBackgroundColor=#ffffff;imageAspect=0;aspect=fixed;image=https://cdn4.iconfinder.com/data/icons/medic-two-tone/32/Pill_2-128.png;fontSize=17;strokeWidth=3;" vertex="1" parent="1">
          <mxGeometry x="520" y="80" width="50" height="50" as="geometry" />
        </mxCell>
        <mxCell id="9N-q147ZUJoEI5QJqwTF-20" value="Gate 1" style="image;html=1;image=img/lib/clip_art/networking/Router_Icon_128x128.png;verticalAlign=middle;fontSize=12;labelPosition=center;verticalLabelPosition=middle;align=center;" vertex="1" parent="1">
          <mxGeometry x="730" y="10" width="80" height="80" as="geometry" />
        </mxCell>
        <mxCell id="9N-q147ZUJoEI5QJqwTF-21" value="" style="image;html=1;image=img/lib/clip_art/computers/Database_128x128.png;strokeWidth=3;" vertex="1" parent="1">
          <mxGeometry x="690" y="207" width="80" height="80" as="geometry" />
        </mxCell>
        <mxCell id="9N-q147ZUJoEI5QJqwTF-22" style="edgeStyle=orthogonalEdgeStyle;rounded=0;orthogonalLoop=1;jettySize=auto;html=1;entryX=0;entryY=0.5;entryDx=0;entryDy=0;fontSize=17;endArrow=none;endFill=0;strokeWidth=2;" edge="1" parent="1" source="9N-q147ZUJoEI5QJqwTF-23" target="9N-q147ZUJoEI5QJqwTF-21">
          <mxGeometry relative="1" as="geometry" />
        </mxCell>
        <mxCell id="9N-q147ZUJoEI5QJqwTF-23" value="" style="shape=image;html=1;verticalAlign=top;verticalLabelPosition=bottom;labelBackgroundColor=#ffffff;imageAspect=0;aspect=fixed;image=https://cdn4.iconfinder.com/data/icons/medic-two-tone/32/Pill_2-128.png;fontSize=17;strokeWidth=3;" vertex="1" parent="1">
          <mxGeometry x="590" y="222" width="50" height="50" as="geometry" />
        </mxCell>
        <mxCell id="9N-q147ZUJoEI5QJqwTF-24" value="" style="image;html=1;image=img/lib/clip_art/computers/Database_128x128.png;strokeWidth=3;" vertex="1" parent="1">
          <mxGeometry x="690" y="292" width="80" height="80" as="geometry" />
        </mxCell>
        <mxCell id="9N-q147ZUJoEI5QJqwTF-25" style="edgeStyle=orthogonalEdgeStyle;rounded=0;orthogonalLoop=1;jettySize=auto;html=1;entryX=0;entryY=0.5;entryDx=0;entryDy=0;fontSize=17;endArrow=none;endFill=0;strokeWidth=2;" edge="1" parent="1" source="9N-q147ZUJoEI5QJqwTF-26" target="9N-q147ZUJoEI5QJqwTF-24">
          <mxGeometry relative="1" as="geometry" />
        </mxCell>
        <mxCell id="9N-q147ZUJoEI5QJqwTF-26" value="" style="shape=image;html=1;verticalAlign=top;verticalLabelPosition=bottom;labelBackgroundColor=#ffffff;imageAspect=0;aspect=fixed;image=https://cdn4.iconfinder.com/data/icons/medic-two-tone/32/Pill_2-128.png;fontSize=17;strokeWidth=3;" vertex="1" parent="1">
          <mxGeometry x="590" y="307" width="50" height="50" as="geometry" />
        </mxCell>
        <mxCell id="9N-q147ZUJoEI5QJqwTF-27" value="&lt;b&gt;Đơn giản nhất&lt;/b&gt;" style="rounded=0;whiteSpace=wrap;html=1;fontSize=17;strokeWidth=3;verticalAlign=top;labelPosition=center;verticalLabelPosition=middle;align=center;" vertex="1" parent="1">
          <mxGeometry x="45" y="480" width="775" height="430" as="geometry" />
        </mxCell>
        <mxCell id="9N-q147ZUJoEI5QJqwTF-28" value="" style="rounded=0;whiteSpace=wrap;html=1;fontSize=17;strokeWidth=3;" vertex="1" parent="1">
          <mxGeometry x="155" y="540" width="375" height="110" as="geometry" />
        </mxCell>
        <mxCell id="9N-q147ZUJoEI5QJqwTF-29" style="edgeStyle=orthogonalEdgeStyle;rounded=0;orthogonalLoop=1;jettySize=auto;html=1;entryX=0;entryY=0.5;entryDx=0;entryDy=0;fontSize=17;endArrow=none;endFill=0;strokeWidth=4;strokeColor=#009900;" edge="1" parent="1" source="9N-q147ZUJoEI5QJqwTF-31" target="9N-q147ZUJoEI5QJqwTF-44">
          <mxGeometry relative="1" as="geometry" />
        </mxCell>
        <mxCell id="9N-q147ZUJoEI5QJqwTF-30" style="edgeStyle=orthogonalEdgeStyle;rounded=0;orthogonalLoop=1;jettySize=auto;html=1;entryX=0;entryY=0.5;entryDx=0;entryDy=0;fontSize=17;endArrow=none;endFill=0;strokeWidth=4;strokeColor=#009900;" edge="1" parent="1" source="9N-q147ZUJoEI5QJqwTF-31" target="9N-q147ZUJoEI5QJqwTF-47">
          <mxGeometry relative="1" as="geometry" />
        </mxCell>
        <mxCell id="9N-q147ZUJoEI5QJqwTF-31" value="&lt;b&gt;&lt;font style=&quot;font-size: 17px;&quot;&gt;Vitess&lt;/font&gt;&lt;/b&gt;" style="rounded=0;whiteSpace=wrap;html=1;strokeWidth=3;labelPosition=center;verticalLabelPosition=middle;align=center;verticalAlign=middle;" vertex="1" parent="1">
          <mxGeometry x="405" y="713" width="120" height="110" as="geometry" />
        </mxCell>
        <mxCell id="9N-q147ZUJoEI5QJqwTF-32" style="edgeStyle=orthogonalEdgeStyle;rounded=0;orthogonalLoop=1;jettySize=auto;html=1;entryX=0;entryY=0.25;entryDx=0;entryDy=0;fontSize=17;strokeWidth=3;exitX=0.97;exitY=0.02;exitDx=0;exitDy=0;exitPerimeter=0;strokeColor=#FF3333;dashed=1;" edge="1" parent="1" source="9N-q147ZUJoEI5QJqwTF-35" target="9N-q147ZUJoEI5QJqwTF-36">
          <mxGeometry relative="1" as="geometry">
            <Array as="points">
              <mxPoint x="109" y="575" />
            </Array>
          </mxGeometry>
        </mxCell>
        <mxCell id="9N-q147ZUJoEI5QJqwTF-33" value="3306" style="edgeLabel;html=1;align=center;verticalAlign=bottom;resizable=0;points=[];fontSize=17;" vertex="1" connectable="0" parent="9N-q147ZUJoEI5QJqwTF-32">
          <mxGeometry x="0.5938" y="5" relative="1" as="geometry">
            <mxPoint as="offset" />
          </mxGeometry>
        </mxCell>
        <mxCell id="9N-q147ZUJoEI5QJqwTF-34" style="edgeStyle=orthogonalEdgeStyle;rounded=0;orthogonalLoop=1;jettySize=auto;html=1;entryX=0;entryY=0.25;entryDx=0;entryDy=0;fontSize=17;fontColor=#000000;endArrow=classic;endFill=1;strokeColor=#009900;strokeWidth=4;" edge="1" parent="1" source="9N-q147ZUJoEI5QJqwTF-35" target="9N-q147ZUJoEI5QJqwTF-41">
          <mxGeometry relative="1" as="geometry" />
        </mxCell>
        <mxCell id="9N-q147ZUJoEI5QJqwTF-35" value="" style="verticalLabelPosition=bottom;html=1;verticalAlign=top;align=center;strokeColor=none;fillColor=#00BEF2;shape=mxgraph.azure.mobile;pointerEvents=1;" vertex="1" parent="1">
          <mxGeometry x="60" y="550" width="50" height="90" as="geometry" />
        </mxCell>
        <mxCell id="9N-q147ZUJoEI5QJqwTF-36" value="" style="image;html=1;image=img/lib/clip_art/computers/Database_128x128.png;strokeWidth=3;" vertex="1" parent="1">
          <mxGeometry x="425" y="555" width="80" height="80" as="geometry" />
        </mxCell>
        <mxCell id="9N-q147ZUJoEI5QJqwTF-37" style="edgeStyle=orthogonalEdgeStyle;rounded=0;orthogonalLoop=1;jettySize=auto;html=1;entryX=1;entryY=0.75;entryDx=0;entryDy=0;fontSize=17;endArrow=none;endFill=0;strokeWidth=3;strokeColor=#FF3333;dashed=1;" edge="1" parent="1" source="9N-q147ZUJoEI5QJqwTF-39" target="9N-q147ZUJoEI5QJqwTF-36">
          <mxGeometry relative="1" as="geometry" />
        </mxCell>
        <mxCell id="9N-q147ZUJoEI5QJqwTF-38" style="edgeStyle=orthogonalEdgeStyle;rounded=0;orthogonalLoop=1;jettySize=auto;html=1;entryX=0.5;entryY=0;entryDx=0;entryDy=0;fontSize=17;endArrow=none;endFill=0;strokeWidth=3;dashed=1;" edge="1" parent="1" source="9N-q147ZUJoEI5QJqwTF-39" target="9N-q147ZUJoEI5QJqwTF-31">
          <mxGeometry relative="1" as="geometry">
            <Array as="points">
              <mxPoint x="590" y="700" />
              <mxPoint x="465" y="700" />
            </Array>
            <mxPoint x="505" y="700" as="targetPoint" />
          </mxGeometry>
        </mxCell>
        <mxCell id="9N-q147ZUJoEI5QJqwTF-39" value="" style="shape=image;html=1;verticalAlign=top;verticalLabelPosition=bottom;labelBackgroundColor=#ffffff;imageAspect=0;aspect=fixed;image=https://cdn4.iconfinder.com/data/icons/medic-two-tone/32/Pill_2-128.png;fontSize=17;strokeWidth=3;" vertex="1" parent="1">
          <mxGeometry x="570" y="590" width="50" height="50" as="geometry" />
        </mxCell>
        <mxCell id="9N-q147ZUJoEI5QJqwTF-40" style="edgeStyle=orthogonalEdgeStyle;rounded=0;orthogonalLoop=1;jettySize=auto;html=1;entryX=0;entryY=0.25;entryDx=0;entryDy=0;fontSize=17;endArrow=classic;endFill=1;strokeColor=#009900;strokeWidth=4;fontColor=#000000;" edge="1" parent="1" source="9N-q147ZUJoEI5QJqwTF-41" target="9N-q147ZUJoEI5QJqwTF-31">
          <mxGeometry relative="1" as="geometry" />
        </mxCell>
        <mxCell id="9N-q147ZUJoEI5QJqwTF-41" value="VTGate&amp;nbsp;&lt;br&gt;3306" style="image;html=1;image=img/lib/clip_art/networking/Router_Icon_128x128.png;verticalAlign=middle;fontSize=12;labelPosition=center;verticalLabelPosition=middle;align=center;fontStyle=1" vertex="1" parent="1">
          <mxGeometry x="284" y="575" width="80" height="80" as="geometry" />
        </mxCell>
        <mxCell id="9N-q147ZUJoEI5QJqwTF-42" value="" style="image;html=1;image=img/lib/clip_art/computers/Database_128x128.png;strokeWidth=3;" vertex="1" parent="1">
          <mxGeometry x="700" y="690" width="80" height="80" as="geometry" />
        </mxCell>
        <mxCell id="9N-q147ZUJoEI5QJqwTF-43" style="edgeStyle=orthogonalEdgeStyle;rounded=0;orthogonalLoop=1;jettySize=auto;html=1;entryX=0;entryY=0.5;entryDx=0;entryDy=0;fontSize=17;endArrow=none;endFill=0;strokeWidth=4;strokeColor=#009900;" edge="1" parent="1" source="9N-q147ZUJoEI5QJqwTF-44" target="9N-q147ZUJoEI5QJqwTF-42">
          <mxGeometry relative="1" as="geometry" />
        </mxCell>
        <mxCell id="9N-q147ZUJoEI5QJqwTF-44" value="" style="shape=image;html=1;verticalAlign=top;verticalLabelPosition=bottom;labelBackgroundColor=#ffffff;imageAspect=0;aspect=fixed;image=https://cdn4.iconfinder.com/data/icons/medic-two-tone/32/Pill_2-128.png;fontSize=17;strokeWidth=3;" vertex="1" parent="1">
          <mxGeometry x="600" y="705" width="50" height="50" as="geometry" />
        </mxCell>
        <mxCell id="9N-q147ZUJoEI5QJqwTF-45" value="" style="image;html=1;image=img/lib/clip_art/computers/Database_128x128.png;strokeWidth=3;" vertex="1" parent="1">
          <mxGeometry x="700" y="775" width="80" height="80" as="geometry" />
        </mxCell>
        <mxCell id="9N-q147ZUJoEI5QJqwTF-46" style="edgeStyle=orthogonalEdgeStyle;rounded=0;orthogonalLoop=1;jettySize=auto;html=1;entryX=0;entryY=0.5;entryDx=0;entryDy=0;fontSize=17;endArrow=none;endFill=0;strokeWidth=4;strokeColor=#009900;" edge="1" parent="1" source="9N-q147ZUJoEI5QJqwTF-47" target="9N-q147ZUJoEI5QJqwTF-45">
          <mxGeometry relative="1" as="geometry" />
        </mxCell>
        <mxCell id="9N-q147ZUJoEI5QJqwTF-47" value="" style="shape=image;html=1;verticalAlign=top;verticalLabelPosition=bottom;labelBackgroundColor=#ffffff;imageAspect=0;aspect=fixed;image=https://cdn4.iconfinder.com/data/icons/medic-two-tone/32/Pill_2-128.png;fontSize=17;strokeWidth=3;" vertex="1" parent="1">
          <mxGeometry x="600" y="790" width="50" height="50" as="geometry" />
        </mxCell>
        <mxCell id="9N-q147ZUJoEI5QJqwTF-48" value="&lt;font style=&quot;font-size: 17px; line-height: 1;&quot;&gt;&lt;b style=&quot;font-size: 17px;&quot;&gt;&lt;u style=&quot;font-size: 17px;&quot;&gt;Ưu điểm:&lt;/u&gt;&lt;/b&gt;&lt;br style=&quot;font-size: 17px;&quot;&gt;- Đơn giản.&lt;br style=&quot;font-size: 17px;&quot;&gt;- Không thay đổi phía Client.&lt;br style=&quot;font-size: 17px;&quot;&gt;&lt;b style=&quot;font-size: 17px;&quot;&gt;&lt;u style=&quot;font-size: 17px;&quot;&gt;Nhược điểm:&lt;/u&gt;&lt;/b&gt;&lt;br style=&quot;font-size: 17px;&quot;&gt;- Downtime = Tgian Phát hiện + Deploy đổi port cho VTGate.(Bị động)&lt;br style=&quot;font-size: 17px;&quot;&gt;- Không có khả năng cân bằng tải.&lt;br style=&quot;font-size: 17px;&quot;&gt;- Yêu cầu triển khai trên host MySQL (Server down không triển khai được)&amp;nbsp;&lt;br style=&quot;font-size: 17px;&quot;&gt;- Yêu cầu sự đồng ý phía chủ quản.&lt;br style=&quot;font-size: 17px;&quot;&gt;&lt;/font&gt;" style="text;html=1;strokeColor=none;fillColor=none;align=left;verticalAlign=top;whiteSpace=wrap;rounded=0;fontSize=17;fontColor=#000000;labelPosition=center;verticalLabelPosition=middle;" vertex="1" parent="1">
          <mxGeometry x="51" y="676" width="349" height="220" as="geometry" />
        </mxCell>
        <mxCell id="9N-q147ZUJoEI5QJqwTF-49" value="" style="rounded=0;whiteSpace=wrap;html=1;fontSize=17;strokeWidth=3;" vertex="1" parent="1">
          <mxGeometry x="380" y="980" width="195" height="110" as="geometry" />
        </mxCell>
        <mxCell id="9N-q147ZUJoEI5QJqwTF-50" style="edgeStyle=orthogonalEdgeStyle;rounded=0;orthogonalLoop=1;jettySize=auto;html=1;entryX=0;entryY=0.5;entryDx=0;entryDy=0;fontSize=17;endArrow=none;endFill=0;strokeWidth=4;strokeColor=#009900;" edge="1" parent="1" target="9N-q147ZUJoEI5QJqwTF-61">
          <mxGeometry relative="1" as="geometry">
            <mxPoint x="570" y="1207.9999999999995" as="sourcePoint" />
          </mxGeometry>
        </mxCell>
        <mxCell id="9N-q147ZUJoEI5QJqwTF-51" style="edgeStyle=orthogonalEdgeStyle;rounded=0;orthogonalLoop=1;jettySize=auto;html=1;entryX=0;entryY=0.5;entryDx=0;entryDy=0;fontSize=17;endArrow=none;endFill=0;strokeWidth=4;strokeColor=#009900;" edge="1" parent="1" target="9N-q147ZUJoEI5QJqwTF-64">
          <mxGeometry relative="1" as="geometry">
            <mxPoint x="570" y="1207.9999999999995" as="sourcePoint" />
          </mxGeometry>
        </mxCell>
        <mxCell id="9N-q147ZUJoEI5QJqwTF-52" style="edgeStyle=orthogonalEdgeStyle;rounded=0;orthogonalLoop=1;jettySize=auto;html=1;entryX=0;entryY=0.25;entryDx=0;entryDy=0;fontSize=17;strokeWidth=3;exitX=0.855;exitY=0.145;exitDx=0;exitDy=0;exitPerimeter=0;strokeColor=#FF3333;dashed=1;" edge="1" parent="1" source="9N-q147ZUJoEI5QJqwTF-68" target="9N-q147ZUJoEI5QJqwTF-55">
          <mxGeometry relative="1" as="geometry" />
        </mxCell>
        <mxCell id="9N-q147ZUJoEI5QJqwTF-53" value="3306" style="edgeLabel;html=1;align=center;verticalAlign=bottom;resizable=0;points=[];fontSize=17;" vertex="1" connectable="0" parent="9N-q147ZUJoEI5QJqwTF-52">
          <mxGeometry x="0.5938" y="5" relative="1" as="geometry">
            <mxPoint as="offset" />
          </mxGeometry>
        </mxCell>
        <mxCell id="9N-q147ZUJoEI5QJqwTF-54" value="" style="verticalLabelPosition=bottom;html=1;verticalAlign=top;align=center;strokeColor=none;fillColor=#00BEF2;shape=mxgraph.azure.mobile;pointerEvents=1;" vertex="1" parent="1">
          <mxGeometry x="170" y="994" width="50" height="90" as="geometry" />
        </mxCell>
        <mxCell id="9N-q147ZUJoEI5QJqwTF-55" value="" style="image;html=1;image=img/lib/clip_art/computers/Database_128x128.png;strokeWidth=3;" vertex="1" parent="1">
          <mxGeometry x="470" y="995" width="80" height="80" as="geometry" />
        </mxCell>
        <mxCell id="9N-q147ZUJoEI5QJqwTF-56" style="edgeStyle=orthogonalEdgeStyle;rounded=0;orthogonalLoop=1;jettySize=auto;html=1;entryX=1;entryY=0.75;entryDx=0;entryDy=0;fontSize=17;endArrow=none;endFill=0;strokeWidth=3;strokeColor=#FF3333;dashed=1;" edge="1" parent="1" source="9N-q147ZUJoEI5QJqwTF-58" target="9N-q147ZUJoEI5QJqwTF-55">
          <mxGeometry relative="1" as="geometry" />
        </mxCell>
        <mxCell id="9N-q147ZUJoEI5QJqwTF-57" style="edgeStyle=orthogonalEdgeStyle;rounded=0;orthogonalLoop=1;jettySize=auto;html=1;entryX=0.5;entryY=0;entryDx=0;entryDy=0;fontSize=17;endArrow=none;endFill=0;strokeWidth=3;dashed=1;" edge="1" parent="1" source="9N-q147ZUJoEI5QJqwTF-58">
          <mxGeometry relative="1" as="geometry">
            <Array as="points">
              <mxPoint x="635" y="1140" />
              <mxPoint x="510" y="1140" />
            </Array>
            <mxPoint x="510" y="1153" as="targetPoint" />
          </mxGeometry>
        </mxCell>
        <mxCell id="9N-q147ZUJoEI5QJqwTF-58" value="" style="shape=image;html=1;verticalAlign=top;verticalLabelPosition=bottom;labelBackgroundColor=#ffffff;imageAspect=0;aspect=fixed;image=https://cdn4.iconfinder.com/data/icons/medic-two-tone/32/Pill_2-128.png;fontSize=17;strokeWidth=3;" vertex="1" parent="1">
          <mxGeometry x="615" y="1030" width="50" height="50" as="geometry" />
        </mxCell>
        <mxCell id="9N-q147ZUJoEI5QJqwTF-59" value="" style="image;html=1;image=img/lib/clip_art/computers/Database_128x128.png;strokeWidth=3;" vertex="1" parent="1">
          <mxGeometry x="722" y="1130" width="80" height="80" as="geometry" />
        </mxCell>
        <mxCell id="9N-q147ZUJoEI5QJqwTF-60" style="edgeStyle=orthogonalEdgeStyle;rounded=0;orthogonalLoop=1;jettySize=auto;html=1;entryX=0;entryY=0.5;entryDx=0;entryDy=0;fontSize=17;endArrow=none;endFill=0;strokeWidth=4;strokeColor=#009900;" edge="1" parent="1" source="9N-q147ZUJoEI5QJqwTF-61" target="9N-q147ZUJoEI5QJqwTF-59">
          <mxGeometry relative="1" as="geometry" />
        </mxCell>
        <mxCell id="9N-q147ZUJoEI5QJqwTF-61" value="" style="shape=image;html=1;verticalAlign=top;verticalLabelPosition=bottom;labelBackgroundColor=#ffffff;imageAspect=0;aspect=fixed;image=https://cdn4.iconfinder.com/data/icons/medic-two-tone/32/Pill_2-128.png;fontSize=17;strokeWidth=3;" vertex="1" parent="1">
          <mxGeometry x="645" y="1145" width="50" height="50" as="geometry" />
        </mxCell>
        <mxCell id="9N-q147ZUJoEI5QJqwTF-62" value="" style="image;html=1;image=img/lib/clip_art/computers/Database_128x128.png;strokeWidth=3;" vertex="1" parent="1">
          <mxGeometry x="722" y="1215" width="80" height="80" as="geometry" />
        </mxCell>
        <mxCell id="9N-q147ZUJoEI5QJqwTF-63" style="edgeStyle=orthogonalEdgeStyle;rounded=0;orthogonalLoop=1;jettySize=auto;html=1;entryX=0;entryY=0.5;entryDx=0;entryDy=0;fontSize=17;endArrow=none;endFill=0;strokeWidth=4;strokeColor=#009900;" edge="1" parent="1" source="9N-q147ZUJoEI5QJqwTF-64" target="9N-q147ZUJoEI5QJqwTF-62">
          <mxGeometry relative="1" as="geometry" />
        </mxCell>
        <mxCell id="9N-q147ZUJoEI5QJqwTF-64" value="" style="shape=image;html=1;verticalAlign=top;verticalLabelPosition=bottom;labelBackgroundColor=#ffffff;imageAspect=0;aspect=fixed;image=https://cdn4.iconfinder.com/data/icons/medic-two-tone/32/Pill_2-128.png;fontSize=17;strokeWidth=3;" vertex="1" parent="1">
          <mxGeometry x="645" y="1230" width="50" height="50" as="geometry" />
        </mxCell>
        <mxCell id="9N-q147ZUJoEI5QJqwTF-65" value="&lt;font style=&quot;font-size: 18px; line-height: 1;&quot;&gt;&lt;b style=&quot;font-size: 18px;&quot;&gt;&lt;u style=&quot;font-size: 18px;&quot;&gt;Ưu điểm:&lt;/u&gt;&lt;/b&gt;&lt;br style=&quot;font-size: 18px;&quot;&gt;- Không thay đổi phía Client.&lt;br style=&quot;font-size: 18px;&quot;&gt;- Cân bằng tải.&lt;br style=&quot;font-size: 18px;&quot;&gt;- Giảm tải cho storage.&lt;br style=&quot;font-size: 18px;&quot;&gt;&lt;b style=&quot;font-size: 18px;&quot;&gt;&lt;u style=&quot;font-size: 18px;&quot;&gt;Nhược điểm:&lt;/u&gt;&lt;/b&gt;&lt;br style=&quot;font-size: 18px;&quot;&gt;- Yêu cầu sự đồng ý phía chủ quản.&lt;br style=&quot;font-size: 18px;&quot;&gt;&lt;/font&gt;" style="text;html=1;strokeColor=none;fillColor=none;align=left;verticalAlign=top;whiteSpace=wrap;rounded=0;fontSize=18;fontColor=#000000;labelPosition=center;verticalLabelPosition=middle;" vertex="1" parent="1">
          <mxGeometry x="70.5" y="1133" width="310" height="247" as="geometry" />
        </mxCell>
        <mxCell id="9N-q147ZUJoEI5QJqwTF-66" style="edgeStyle=orthogonalEdgeStyle;rounded=0;orthogonalLoop=1;jettySize=auto;html=1;entryX=0;entryY=0.5;entryDx=0;entryDy=0;fontSize=14;fontColor=#000000;endArrow=classic;endFill=1;strokeColor=#009900;strokeWidth=4;" edge="1" parent="1" source="9N-q147ZUJoEI5QJqwTF-68" target="9N-q147ZUJoEI5QJqwTF-71">
          <mxGeometry relative="1" as="geometry" />
        </mxCell>
        <mxCell id="9N-q147ZUJoEI5QJqwTF-67" style="edgeStyle=orthogonalEdgeStyle;rounded=0;orthogonalLoop=1;jettySize=auto;html=1;entryX=0;entryY=0.5;entryDx=0;entryDy=0;fontSize=14;fontColor=#000000;endArrow=classic;endFill=1;strokeColor=#009900;strokeWidth=4;" edge="1" parent="1" source="9N-q147ZUJoEI5QJqwTF-68" target="9N-q147ZUJoEI5QJqwTF-70">
          <mxGeometry relative="1" as="geometry" />
        </mxCell>
        <mxCell id="9N-q147ZUJoEI5QJqwTF-68" value="&lt;b style=&quot;font-size: 14px;&quot;&gt;Proxy &lt;br&gt;Cân bằng tải&lt;/b&gt;" style="outlineConnect=0;dashed=0;verticalLabelPosition=top;verticalAlign=bottom;align=center;html=1;shape=mxgraph.aws3.classic_load_balancer;fillColor=#F58536;gradientColor=none;strokeWidth=3;labelPosition=center;" vertex="1" parent="1">
          <mxGeometry x="260" y="1003" width="69" height="72" as="geometry" />
        </mxCell>
        <mxCell id="9N-q147ZUJoEI5QJqwTF-69" value="" style="edgeStyle=orthogonalEdgeStyle;rounded=0;orthogonalLoop=1;jettySize=auto;html=1;entryX=0;entryY=0.5;entryDx=0;entryDy=0;fontSize=17;fontColor=#000000;endArrow=none;endFill=1;strokeColor=#009900;strokeWidth=4;entryPerimeter=0;" edge="1" parent="1" source="9N-q147ZUJoEI5QJqwTF-54" target="9N-q147ZUJoEI5QJqwTF-68">
          <mxGeometry relative="1" as="geometry">
            <mxPoint x="155" y="1034.9999999999998" as="sourcePoint" />
            <mxPoint x="325" y="1165" as="targetPoint" />
          </mxGeometry>
        </mxCell>
        <mxCell id="9N-q147ZUJoEI5QJqwTF-70" value="Gate 1" style="image;html=1;image=img/lib/clip_art/networking/Router_Icon_128x128.png;verticalAlign=middle;fontSize=12;labelPosition=center;verticalLabelPosition=middle;align=center;" vertex="1" parent="1">
          <mxGeometry x="470" y="1163" width="80" height="80" as="geometry" />
        </mxCell>
        <mxCell id="9N-q147ZUJoEI5QJqwTF-71" value="Gate 2" style="image;html=1;image=img/lib/clip_art/networking/Router_Icon_128x128.png;labelPosition=center;verticalLabelPosition=middle;align=center;verticalAlign=middle;" vertex="1" parent="1">
          <mxGeometry x="470" y="1253" width="80" height="80" as="geometry" />
        </mxCell>
        <mxCell id="9N-q147ZUJoEI5QJqwTF-72" value="" style="shape=image;html=1;verticalAlign=top;verticalLabelPosition=bottom;labelBackgroundColor=#ffffff;imageAspect=0;aspect=fixed;image=https://cdn3.iconfinder.com/data/icons/arrows-397/48/arrow_infinity-128.png;strokeWidth=3;" vertex="1" parent="1">
          <mxGeometry x="480" y="1333" width="60" height="60" as="geometry" />
        </mxCell>
        <mxCell id="9N-q147ZUJoEI5QJqwTF-73" value="&lt;b&gt;Không có sẵn HA phía trước.&lt;/b&gt;" style="rounded=0;whiteSpace=wrap;html=1;fontSize=17;strokeWidth=3;verticalAlign=top;labelPosition=center;verticalLabelPosition=middle;align=center;" vertex="1" parent="1">
          <mxGeometry x="45" y="1520" width="775" height="520" as="geometry" />
        </mxCell>
        <mxCell id="9N-q147ZUJoEI5QJqwTF-74" value="&lt;b&gt;&lt;font style=&quot;font-size: 17px;&quot;&gt;Giảm tải cho storage&lt;/font&gt;&lt;/b&gt;" style="rounded=0;whiteSpace=wrap;html=1;strokeWidth=3;labelPosition=center;verticalLabelPosition=bottom;align=center;verticalAlign=top;" vertex="1" parent="1">
          <mxGeometry x="445" y="1730" width="120" height="250" as="geometry" />
        </mxCell>
        <mxCell id="9N-q147ZUJoEI5QJqwTF-75" value="" style="rounded=0;whiteSpace=wrap;html=1;fontSize=17;strokeWidth=3;" vertex="1" parent="1">
          <mxGeometry x="380" y="1560" width="195" height="110" as="geometry" />
        </mxCell>
        <mxCell id="9N-q147ZUJoEI5QJqwTF-76" style="edgeStyle=orthogonalEdgeStyle;rounded=0;orthogonalLoop=1;jettySize=auto;html=1;entryX=0;entryY=0.5;entryDx=0;entryDy=0;fontSize=17;endArrow=none;endFill=0;strokeWidth=4;strokeColor=#009900;" edge="1" parent="1" target="9N-q147ZUJoEI5QJqwTF-86">
          <mxGeometry relative="1" as="geometry">
            <mxPoint x="570" y="1787.9999999999995" as="sourcePoint" />
          </mxGeometry>
        </mxCell>
        <mxCell id="9N-q147ZUJoEI5QJqwTF-77" style="edgeStyle=orthogonalEdgeStyle;rounded=0;orthogonalLoop=1;jettySize=auto;html=1;entryX=0;entryY=0.5;entryDx=0;entryDy=0;fontSize=17;endArrow=none;endFill=0;strokeWidth=4;strokeColor=#009900;" edge="1" parent="1" target="9N-q147ZUJoEI5QJqwTF-89">
          <mxGeometry relative="1" as="geometry">
            <mxPoint x="570" y="1787.9999999999995" as="sourcePoint" />
          </mxGeometry>
        </mxCell>
        <mxCell id="9N-q147ZUJoEI5QJqwTF-78" style="edgeStyle=orthogonalEdgeStyle;rounded=0;orthogonalLoop=1;jettySize=auto;html=1;fontSize=14;fontColor=#000000;endArrow=classic;endFill=1;strokeColor=#FF3333;strokeWidth=4;dashed=1;" edge="1" parent="1" source="9N-q147ZUJoEI5QJqwTF-79" target="9N-q147ZUJoEI5QJqwTF-80">
          <mxGeometry relative="1" as="geometry" />
        </mxCell>
        <mxCell id="9N-q147ZUJoEI5QJqwTF-79" value="" style="verticalLabelPosition=bottom;html=1;verticalAlign=top;align=center;strokeColor=none;fillColor=#00BEF2;shape=mxgraph.azure.mobile;pointerEvents=1;" vertex="1" parent="1">
          <mxGeometry x="170" y="1571" width="50" height="90" as="geometry" />
        </mxCell>
        <mxCell id="9N-q147ZUJoEI5QJqwTF-80" value="" style="image;html=1;image=img/lib/clip_art/computers/Database_128x128.png;strokeWidth=3;" vertex="1" parent="1">
          <mxGeometry x="470" y="1575" width="80" height="80" as="geometry" />
        </mxCell>
        <mxCell id="9N-q147ZUJoEI5QJqwTF-81" style="edgeStyle=orthogonalEdgeStyle;rounded=0;orthogonalLoop=1;jettySize=auto;html=1;entryX=1;entryY=0.75;entryDx=0;entryDy=0;fontSize=17;endArrow=none;endFill=0;strokeWidth=3;strokeColor=#FF3333;dashed=1;" edge="1" parent="1" source="9N-q147ZUJoEI5QJqwTF-83" target="9N-q147ZUJoEI5QJqwTF-80">
          <mxGeometry relative="1" as="geometry" />
        </mxCell>
        <mxCell id="9N-q147ZUJoEI5QJqwTF-82" style="edgeStyle=orthogonalEdgeStyle;rounded=0;orthogonalLoop=1;jettySize=auto;html=1;entryX=0.5;entryY=0;entryDx=0;entryDy=0;fontSize=17;endArrow=none;endFill=0;strokeWidth=3;dashed=1;" edge="1" parent="1" source="9N-q147ZUJoEI5QJqwTF-83">
          <mxGeometry relative="1" as="geometry">
            <Array as="points">
              <mxPoint x="635" y="1720" />
              <mxPoint x="510" y="1720" />
            </Array>
            <mxPoint x="510" y="1733" as="targetPoint" />
          </mxGeometry>
        </mxCell>
        <mxCell id="9N-q147ZUJoEI5QJqwTF-83" value="" style="shape=image;html=1;verticalAlign=top;verticalLabelPosition=bottom;labelBackgroundColor=#ffffff;imageAspect=0;aspect=fixed;image=https://cdn4.iconfinder.com/data/icons/medic-two-tone/32/Pill_2-128.png;fontSize=17;strokeWidth=3;" vertex="1" parent="1">
          <mxGeometry x="615" y="1610" width="50" height="50" as="geometry" />
        </mxCell>
        <mxCell id="9N-q147ZUJoEI5QJqwTF-84" value="" style="image;html=1;image=img/lib/clip_art/computers/Database_128x128.png;strokeWidth=3;" vertex="1" parent="1">
          <mxGeometry x="723" y="1710" width="80" height="80" as="geometry" />
        </mxCell>
        <mxCell id="9N-q147ZUJoEI5QJqwTF-85" style="edgeStyle=orthogonalEdgeStyle;rounded=0;orthogonalLoop=1;jettySize=auto;html=1;entryX=0;entryY=0.5;entryDx=0;entryDy=0;fontSize=17;endArrow=none;endFill=0;strokeWidth=4;strokeColor=#009900;" edge="1" parent="1" source="9N-q147ZUJoEI5QJqwTF-86" target="9N-q147ZUJoEI5QJqwTF-84">
          <mxGeometry relative="1" as="geometry" />
        </mxCell>
        <mxCell id="9N-q147ZUJoEI5QJqwTF-86" value="" style="shape=image;html=1;verticalAlign=top;verticalLabelPosition=bottom;labelBackgroundColor=#ffffff;imageAspect=0;aspect=fixed;image=https://cdn4.iconfinder.com/data/icons/medic-two-tone/32/Pill_2-128.png;fontSize=17;strokeWidth=3;" vertex="1" parent="1">
          <mxGeometry x="645" y="1725" width="50" height="50" as="geometry" />
        </mxCell>
        <mxCell id="9N-q147ZUJoEI5QJqwTF-87" value="" style="image;html=1;image=img/lib/clip_art/computers/Database_128x128.png;strokeWidth=3;" vertex="1" parent="1">
          <mxGeometry x="723" y="1795" width="80" height="80" as="geometry" />
        </mxCell>
        <mxCell id="9N-q147ZUJoEI5QJqwTF-88" style="edgeStyle=orthogonalEdgeStyle;rounded=0;orthogonalLoop=1;jettySize=auto;html=1;entryX=0;entryY=0.5;entryDx=0;entryDy=0;fontSize=17;endArrow=none;endFill=0;strokeWidth=4;strokeColor=#009900;" edge="1" parent="1" source="9N-q147ZUJoEI5QJqwTF-89" target="9N-q147ZUJoEI5QJqwTF-87">
          <mxGeometry relative="1" as="geometry" />
        </mxCell>
        <mxCell id="9N-q147ZUJoEI5QJqwTF-89" value="" style="shape=image;html=1;verticalAlign=top;verticalLabelPosition=bottom;labelBackgroundColor=#ffffff;imageAspect=0;aspect=fixed;image=https://cdn4.iconfinder.com/data/icons/medic-two-tone/32/Pill_2-128.png;fontSize=17;strokeWidth=3;" vertex="1" parent="1">
          <mxGeometry x="645" y="1810" width="50" height="50" as="geometry" />
        </mxCell>
        <mxCell id="9N-q147ZUJoEI5QJqwTF-90" value="&lt;font style=&quot;font-size: 18px; line-height: 1;&quot;&gt;&lt;b style=&quot;font-size: 18px;&quot;&gt;&lt;u style=&quot;font-size: 18px;&quot;&gt;Ưu điểm:&lt;/u&gt;&lt;/b&gt;&lt;br style=&quot;font-size: 18px;&quot;&gt;- Không thay đổi phía Client.&lt;br&gt;- Cân bằng tải.&lt;br&gt;- Giảm tải cho storage.&lt;br style=&quot;font-size: 18px;&quot;&gt;&lt;b style=&quot;font-size: 18px;&quot;&gt;&lt;u style=&quot;font-size: 18px;&quot;&gt;Nhược điểm:&lt;/u&gt;&lt;/b&gt;&lt;br style=&quot;font-size: 18px;&quot;&gt;- Thay đổi code phía client.&lt;br style=&quot;font-size: 18px;&quot;&gt;- Proxy down = Down all.&lt;br style=&quot;font-size: 18px;&quot;&gt;&lt;/font&gt;" style="text;html=1;strokeColor=none;fillColor=none;align=left;verticalAlign=top;whiteSpace=wrap;rounded=0;fontSize=18;fontColor=#000000;labelPosition=center;verticalLabelPosition=middle;" vertex="1" parent="1">
          <mxGeometry x="70.5" y="1736" width="310" height="247" as="geometry" />
        </mxCell>
        <mxCell id="9N-q147ZUJoEI5QJqwTF-91" style="edgeStyle=orthogonalEdgeStyle;rounded=0;orthogonalLoop=1;jettySize=auto;html=1;entryX=0;entryY=0.5;entryDx=0;entryDy=0;fontSize=14;fontColor=#000000;endArrow=classic;endFill=1;strokeColor=#009900;strokeWidth=4;" edge="1" parent="1" source="9N-q147ZUJoEI5QJqwTF-93" target="9N-q147ZUJoEI5QJqwTF-96">
          <mxGeometry relative="1" as="geometry" />
        </mxCell>
        <mxCell id="9N-q147ZUJoEI5QJqwTF-92" style="edgeStyle=orthogonalEdgeStyle;rounded=0;orthogonalLoop=1;jettySize=auto;html=1;entryX=0;entryY=0.5;entryDx=0;entryDy=0;fontSize=14;fontColor=#000000;endArrow=classic;endFill=1;strokeColor=#009900;strokeWidth=4;" edge="1" parent="1" source="9N-q147ZUJoEI5QJqwTF-93" target="9N-q147ZUJoEI5QJqwTF-95">
          <mxGeometry relative="1" as="geometry" />
        </mxCell>
        <mxCell id="9N-q147ZUJoEI5QJqwTF-93" value="&lt;b style=&quot;font-size: 14px;&quot;&gt;Proxy &lt;br&gt;Cân bằng tải&lt;/b&gt;" style="outlineConnect=0;dashed=0;verticalLabelPosition=top;verticalAlign=bottom;align=center;html=1;shape=mxgraph.aws3.classic_load_balancer;fillColor=#F58536;gradientColor=none;strokeWidth=3;labelPosition=center;" vertex="1" parent="1">
          <mxGeometry x="291.5" y="1680" width="69" height="72" as="geometry" />
        </mxCell>
        <mxCell id="9N-q147ZUJoEI5QJqwTF-94" value="" style="edgeStyle=orthogonalEdgeStyle;rounded=0;orthogonalLoop=1;jettySize=auto;html=1;entryX=0;entryY=0.5;entryDx=0;entryDy=0;fontSize=17;fontColor=#000000;endArrow=none;endFill=1;strokeColor=#009900;strokeWidth=4;entryPerimeter=0;" edge="1" parent="1" source="9N-q147ZUJoEI5QJqwTF-79" target="9N-q147ZUJoEI5QJqwTF-93">
          <mxGeometry relative="1" as="geometry">
            <mxPoint x="155" y="1614.9999999999998" as="sourcePoint" />
            <mxPoint x="325" y="1745" as="targetPoint" />
          </mxGeometry>
        </mxCell>
        <mxCell id="9N-q147ZUJoEI5QJqwTF-95" value="Gate 1" style="image;html=1;image=img/lib/clip_art/networking/Router_Icon_128x128.png;verticalAlign=middle;fontSize=12;labelPosition=center;verticalLabelPosition=middle;align=center;" vertex="1" parent="1">
          <mxGeometry x="470" y="1743" width="80" height="80" as="geometry" />
        </mxCell>
        <mxCell id="9N-q147ZUJoEI5QJqwTF-96" value="Gate 2" style="image;html=1;image=img/lib/clip_art/networking/Router_Icon_128x128.png;labelPosition=center;verticalLabelPosition=middle;align=center;verticalAlign=middle;" vertex="1" parent="1">
          <mxGeometry x="470" y="1833" width="80" height="80" as="geometry" />
        </mxCell>
        <mxCell id="9N-q147ZUJoEI5QJqwTF-97" value="" style="shape=image;html=1;verticalAlign=top;verticalLabelPosition=bottom;labelBackgroundColor=#ffffff;imageAspect=0;aspect=fixed;image=https://cdn3.iconfinder.com/data/icons/arrows-397/48/arrow_infinity-128.png;strokeWidth=3;" vertex="1" parent="1">
          <mxGeometry x="480" y="1913" width="60" height="60" as="geometry" />
        </mxCell>
        <mxCell id="9N-q147ZUJoEI5QJqwTF-98" value="&lt;b&gt;Sợ quá thì: .........&lt;/b&gt;" style="rounded=0;whiteSpace=wrap;html=1;fontSize=17;strokeWidth=3;verticalAlign=top;labelPosition=center;verticalLabelPosition=middle;align=center;" vertex="1" parent="1">
          <mxGeometry x="45" y="2080" width="775" height="520" as="geometry" />
        </mxCell>
        <mxCell id="9N-q147ZUJoEI5QJqwTF-99" value="&lt;b&gt;&lt;font style=&quot;font-size: 17px;&quot;&gt;Giảm tải cho storage&lt;/font&gt;&lt;/b&gt;" style="rounded=0;whiteSpace=wrap;html=1;strokeWidth=3;labelPosition=center;verticalLabelPosition=bottom;align=center;verticalAlign=top;" vertex="1" parent="1">
          <mxGeometry x="445" y="2290" width="120" height="250" as="geometry" />
        </mxCell>
        <mxCell id="9N-q147ZUJoEI5QJqwTF-100" value="" style="rounded=0;whiteSpace=wrap;html=1;fontSize=17;strokeWidth=3;" vertex="1" parent="1">
          <mxGeometry x="380" y="2120" width="195" height="110" as="geometry" />
        </mxCell>
        <mxCell id="9N-q147ZUJoEI5QJqwTF-101" style="edgeStyle=orthogonalEdgeStyle;rounded=0;orthogonalLoop=1;jettySize=auto;html=1;entryX=0;entryY=0.5;entryDx=0;entryDy=0;fontSize=17;endArrow=none;endFill=0;strokeWidth=4;strokeColor=#009900;" edge="1" parent="1" target="9N-q147ZUJoEI5QJqwTF-112">
          <mxGeometry relative="1" as="geometry">
            <mxPoint x="570" y="2347.9999999999995" as="sourcePoint" />
          </mxGeometry>
        </mxCell>
        <mxCell id="9N-q147ZUJoEI5QJqwTF-102" style="edgeStyle=orthogonalEdgeStyle;rounded=0;orthogonalLoop=1;jettySize=auto;html=1;entryX=0;entryY=0.5;entryDx=0;entryDy=0;fontSize=17;endArrow=none;endFill=0;strokeWidth=4;strokeColor=#009900;" edge="1" parent="1" target="9N-q147ZUJoEI5QJqwTF-115">
          <mxGeometry relative="1" as="geometry">
            <mxPoint x="570" y="2347.9999999999995" as="sourcePoint" />
          </mxGeometry>
        </mxCell>
        <mxCell id="9N-q147ZUJoEI5QJqwTF-103" style="edgeStyle=orthogonalEdgeStyle;rounded=0;orthogonalLoop=1;jettySize=auto;html=1;fontSize=14;fontColor=#000000;endArrow=classic;endFill=1;strokeColor=#FF3333;strokeWidth=4;dashed=1;" edge="1" parent="1" source="9N-q147ZUJoEI5QJqwTF-105" target="9N-q147ZUJoEI5QJqwTF-106">
          <mxGeometry relative="1" as="geometry" />
        </mxCell>
        <mxCell id="9N-q147ZUJoEI5QJqwTF-104" style="edgeStyle=orthogonalEdgeStyle;rounded=0;orthogonalLoop=1;jettySize=auto;html=1;entryX=0;entryY=0.5;entryDx=0;entryDy=0;entryPerimeter=0;fontSize=18;fontColor=#000000;endArrow=none;endFill=0;strokeColor=#009900;strokeWidth=4;" edge="1" parent="1" source="9N-q147ZUJoEI5QJqwTF-105" target="9N-q147ZUJoEI5QJqwTF-125">
          <mxGeometry relative="1" as="geometry" />
        </mxCell>
        <mxCell id="9N-q147ZUJoEI5QJqwTF-105" value="" style="verticalLabelPosition=bottom;html=1;verticalAlign=top;align=center;strokeColor=none;fillColor=#00BEF2;shape=mxgraph.azure.mobile;pointerEvents=1;" vertex="1" parent="1">
          <mxGeometry x="170" y="2131" width="50" height="90" as="geometry" />
        </mxCell>
        <mxCell id="9N-q147ZUJoEI5QJqwTF-106" value="" style="image;html=1;image=img/lib/clip_art/computers/Database_128x128.png;strokeWidth=3;" vertex="1" parent="1">
          <mxGeometry x="470" y="2135" width="80" height="80" as="geometry" />
        </mxCell>
        <mxCell id="9N-q147ZUJoEI5QJqwTF-107" style="edgeStyle=orthogonalEdgeStyle;rounded=0;orthogonalLoop=1;jettySize=auto;html=1;entryX=1;entryY=0.75;entryDx=0;entryDy=0;fontSize=17;endArrow=none;endFill=0;strokeWidth=3;strokeColor=#FF3333;dashed=1;" edge="1" parent="1" source="9N-q147ZUJoEI5QJqwTF-109" target="9N-q147ZUJoEI5QJqwTF-106">
          <mxGeometry relative="1" as="geometry" />
        </mxCell>
        <mxCell id="9N-q147ZUJoEI5QJqwTF-108" style="edgeStyle=orthogonalEdgeStyle;rounded=0;orthogonalLoop=1;jettySize=auto;html=1;entryX=0.5;entryY=0;entryDx=0;entryDy=0;fontSize=17;endArrow=none;endFill=0;strokeWidth=3;dashed=1;" edge="1" parent="1" source="9N-q147ZUJoEI5QJqwTF-109">
          <mxGeometry relative="1" as="geometry">
            <Array as="points">
              <mxPoint x="635" y="2280" />
              <mxPoint x="510" y="2280" />
            </Array>
            <mxPoint x="510" y="2293" as="targetPoint" />
          </mxGeometry>
        </mxCell>
        <mxCell id="9N-q147ZUJoEI5QJqwTF-109" value="" style="shape=image;html=1;verticalAlign=top;verticalLabelPosition=bottom;labelBackgroundColor=#ffffff;imageAspect=0;aspect=fixed;image=https://cdn4.iconfinder.com/data/icons/medic-two-tone/32/Pill_2-128.png;fontSize=17;strokeWidth=3;" vertex="1" parent="1">
          <mxGeometry x="615" y="2170" width="50" height="50" as="geometry" />
        </mxCell>
        <mxCell id="9N-q147ZUJoEI5QJqwTF-110" value="" style="image;html=1;image=img/lib/clip_art/computers/Database_128x128.png;strokeWidth=3;" vertex="1" parent="1">
          <mxGeometry x="721" y="2270" width="80" height="80" as="geometry" />
        </mxCell>
        <mxCell id="9N-q147ZUJoEI5QJqwTF-111" style="edgeStyle=orthogonalEdgeStyle;rounded=0;orthogonalLoop=1;jettySize=auto;html=1;entryX=0;entryY=0.5;entryDx=0;entryDy=0;fontSize=17;endArrow=none;endFill=0;strokeWidth=4;strokeColor=#009900;" edge="1" parent="1" source="9N-q147ZUJoEI5QJqwTF-112" target="9N-q147ZUJoEI5QJqwTF-110">
          <mxGeometry relative="1" as="geometry" />
        </mxCell>
        <mxCell id="9N-q147ZUJoEI5QJqwTF-112" value="" style="shape=image;html=1;verticalAlign=top;verticalLabelPosition=bottom;labelBackgroundColor=#ffffff;imageAspect=0;aspect=fixed;image=https://cdn4.iconfinder.com/data/icons/medic-two-tone/32/Pill_2-128.png;fontSize=17;strokeWidth=3;" vertex="1" parent="1">
          <mxGeometry x="645" y="2285" width="50" height="50" as="geometry" />
        </mxCell>
        <mxCell id="9N-q147ZUJoEI5QJqwTF-113" value="" style="image;html=1;image=img/lib/clip_art/computers/Database_128x128.png;strokeWidth=3;" vertex="1" parent="1">
          <mxGeometry x="721" y="2355" width="80" height="80" as="geometry" />
        </mxCell>
        <mxCell id="9N-q147ZUJoEI5QJqwTF-114" style="edgeStyle=orthogonalEdgeStyle;rounded=0;orthogonalLoop=1;jettySize=auto;html=1;entryX=0;entryY=0.5;entryDx=0;entryDy=0;fontSize=17;endArrow=none;endFill=0;strokeWidth=4;strokeColor=#009900;" edge="1" parent="1" source="9N-q147ZUJoEI5QJqwTF-115" target="9N-q147ZUJoEI5QJqwTF-113">
          <mxGeometry relative="1" as="geometry" />
        </mxCell>
        <mxCell id="9N-q147ZUJoEI5QJqwTF-115" value="" style="shape=image;html=1;verticalAlign=top;verticalLabelPosition=bottom;labelBackgroundColor=#ffffff;imageAspect=0;aspect=fixed;image=https://cdn4.iconfinder.com/data/icons/medic-two-tone/32/Pill_2-128.png;fontSize=17;strokeWidth=3;" vertex="1" parent="1">
          <mxGeometry x="645" y="2370" width="50" height="50" as="geometry" />
        </mxCell>
        <mxCell id="9N-q147ZUJoEI5QJqwTF-116" value="&lt;font style=&quot;font-size: 18px; line-height: 1;&quot;&gt;&lt;b style=&quot;font-size: 18px;&quot;&gt;&lt;u style=&quot;font-size: 18px;&quot;&gt;Ưu điểm:&lt;/u&gt;&lt;/b&gt;&lt;br style=&quot;font-size: 18px;&quot;&gt;- Không thay đổi phía Client.&lt;br&gt;- Cân bằng tải.&lt;br&gt;- Giảm tải cho storage.&lt;br style=&quot;font-size: 18px;&quot;&gt;&lt;b style=&quot;font-size: 18px;&quot;&gt;&lt;u style=&quot;font-size: 18px;&quot;&gt;Nhược điểm:&lt;/u&gt;&lt;/b&gt;&lt;br style=&quot;font-size: 18px;&quot;&gt;- Thay đổi code phía client.&lt;br style=&quot;font-size: 18px;&quot;&gt;- Proxy down = Down all.&lt;br&gt;- Yêu cầu 2 Proxy.&lt;br style=&quot;font-size: 18px;&quot;&gt;&lt;/font&gt;" style="text;html=1;strokeColor=none;fillColor=none;align=left;verticalAlign=top;whiteSpace=wrap;rounded=0;fontSize=18;fontColor=#000000;labelPosition=center;verticalLabelPosition=middle;" vertex="1" parent="1">
          <mxGeometry x="65" y="2383" width="310" height="247" as="geometry" />
        </mxCell>
        <mxCell id="9N-q147ZUJoEI5QJqwTF-117" style="edgeStyle=orthogonalEdgeStyle;rounded=0;orthogonalLoop=1;jettySize=auto;html=1;entryX=0;entryY=0.5;entryDx=0;entryDy=0;fontSize=14;fontColor=#000000;endArrow=classic;endFill=1;strokeColor=#009900;strokeWidth=4;" edge="1" parent="1" source="9N-q147ZUJoEI5QJqwTF-119" target="9N-q147ZUJoEI5QJqwTF-122">
          <mxGeometry relative="1" as="geometry" />
        </mxCell>
        <mxCell id="9N-q147ZUJoEI5QJqwTF-118" style="edgeStyle=orthogonalEdgeStyle;rounded=0;orthogonalLoop=1;jettySize=auto;html=1;entryX=0;entryY=0.5;entryDx=0;entryDy=0;fontSize=14;fontColor=#000000;endArrow=classic;endFill=1;strokeColor=#009900;strokeWidth=4;" edge="1" parent="1" source="9N-q147ZUJoEI5QJqwTF-119" target="9N-q147ZUJoEI5QJqwTF-121">
          <mxGeometry relative="1" as="geometry" />
        </mxCell>
        <mxCell id="9N-q147ZUJoEI5QJqwTF-119" value="&lt;b style=&quot;font-size: 14px;&quot;&gt;Proxy &lt;br&gt;Cân bằng tải&lt;/b&gt;" style="outlineConnect=0;dashed=0;verticalLabelPosition=top;verticalAlign=bottom;align=center;html=1;shape=mxgraph.aws3.classic_load_balancer;fillColor=#F58536;gradientColor=none;strokeWidth=3;labelPosition=center;" vertex="1" parent="1">
          <mxGeometry x="291.5" y="2240" width="69" height="72" as="geometry" />
        </mxCell>
        <mxCell id="9N-q147ZUJoEI5QJqwTF-120" value="" style="edgeStyle=orthogonalEdgeStyle;rounded=0;orthogonalLoop=1;jettySize=auto;html=1;entryX=0;entryY=0.5;entryDx=0;entryDy=0;fontSize=17;fontColor=#000000;endArrow=none;endFill=1;strokeColor=#009900;strokeWidth=4;entryPerimeter=0;" edge="1" parent="1" source="9N-q147ZUJoEI5QJqwTF-105" target="9N-q147ZUJoEI5QJqwTF-119">
          <mxGeometry relative="1" as="geometry">
            <mxPoint x="155" y="2175" as="sourcePoint" />
            <mxPoint x="325" y="2305" as="targetPoint" />
          </mxGeometry>
        </mxCell>
        <mxCell id="9N-q147ZUJoEI5QJqwTF-121" value="Gate 1" style="image;html=1;image=img/lib/clip_art/networking/Router_Icon_128x128.png;verticalAlign=middle;fontSize=12;labelPosition=center;verticalLabelPosition=middle;align=center;" vertex="1" parent="1">
          <mxGeometry x="470" y="2303" width="80" height="80" as="geometry" />
        </mxCell>
        <mxCell id="9N-q147ZUJoEI5QJqwTF-122" value="Gate 2" style="image;html=1;image=img/lib/clip_art/networking/Router_Icon_128x128.png;labelPosition=center;verticalLabelPosition=middle;align=center;verticalAlign=middle;" vertex="1" parent="1">
          <mxGeometry x="470" y="2393" width="80" height="80" as="geometry" />
        </mxCell>
        <mxCell id="9N-q147ZUJoEI5QJqwTF-123" value="" style="shape=image;html=1;verticalAlign=top;verticalLabelPosition=bottom;labelBackgroundColor=#ffffff;imageAspect=0;aspect=fixed;image=https://cdn3.iconfinder.com/data/icons/arrows-397/48/arrow_infinity-128.png;strokeWidth=3;" vertex="1" parent="1">
          <mxGeometry x="480" y="2473" width="60" height="60" as="geometry" />
        </mxCell>
        <mxCell id="9N-q147ZUJoEI5QJqwTF-124" style="edgeStyle=orthogonalEdgeStyle;rounded=0;orthogonalLoop=1;jettySize=auto;html=1;fontSize=18;fontColor=#000000;endArrow=none;endFill=0;strokeColor=#009900;strokeWidth=4;" edge="1" parent="1" source="9N-q147ZUJoEI5QJqwTF-125" target="9N-q147ZUJoEI5QJqwTF-121">
          <mxGeometry relative="1" as="geometry" />
        </mxCell>
        <mxCell id="9N-q147ZUJoEI5QJqwTF-125" value="&lt;b style=&quot;font-size: 14px;&quot;&gt;Proxy &lt;br&gt;Cân bằng tải&lt;/b&gt;" style="outlineConnect=0;dashed=0;verticalLabelPosition=top;verticalAlign=bottom;align=center;html=1;shape=mxgraph.aws3.classic_load_balancer;fillColor=#F58536;gradientColor=none;strokeWidth=3;labelPosition=center;" vertex="1" parent="1">
          <mxGeometry x="289.5" y="2359" width="69" height="72" as="geometry" />
        </mxCell>
      </root>
    </mxGraphModel>
  </diagram>
</mxfile>
